<?xml version="1.0" encoding="utf-8"?>
<?xml-stylesheet type="text/xsl" href="rss1.xsl"?>
<rss version="2.0" xmlns:atom="http://www.w3.org/2005/Atom" xmlns:content="http://purl.org/rss/1.0/modules/content/" xmlns:dc="http://purl.org/dc/elements/1.1/" xmlns:media="http://search.yahoo.com/mrss/">
<channel>
 <title>Getty</title>
 <link>http://www.gettyimg.com/</link>
 <atom:link href="http://www.gettyimg.com/" rel="self" type="application/rss+xml" />

 
                <item>
                <title><![CDATA[【Cinema Center】MOVIE - Descendants.2015.1080p.DSNP.WEB-DL.DDP5.1.H.264-Samuel]]></title>
                <link><![CDATA[https://sharemania.us/threads/descendants-2015-1080p-dsnp-web-dl-ddp5-1-h-264-samuel.242207/]]></link>
                <description><![CDATA[<article>
<blockquote class="messageText SelectQuoteContainer ugc baseHtml">
<div style="text-align: center"><b><span style="font-size: 26px">Descendants</span></b><br>
<img src="https://i.imgur.com/NVVDvlw.png" class="bbCodeImage LbImage" alt="[​IMG]" data-url="https://i.imgur.com/NVVDvlw.png" style=""><br>
<b><a href="https://i.imgur.com/Ko1QVMH.jpeg" target="_blank" class="externalLink" rel="nofollow">Alternate Artwork 1</a></b> | <b><a href="https://i.imgur.com/Am29dOA.jpg" target="_blank" class="externalLink" rel="nofollow">Alternate Artwork 2</a></b> | <b><a href="https://i.imgur.com/4AWoyt3.jpg" target="_blank" class="externalLink" rel="nofollow">Alternate Artwork 3</a></b> | <b><a href="https://i.imgur.com/2ED7n9z.png" target="_blank" class="externalLink" rel="nofollow">Alternate Artwork 4</a></b> | <b><a href="https://i.imgur.com/MsITnQd.png" target="_blank" class="externalLink" rel="nofollow">Alternate Artwork 5</a></b> | <b><a href="https://i.imgur.com/KxdRj6M.png" target="_blank" class="externalLink" rel="nofollow">Alternate Artwork 6</a></b> | <b><a href="https://i.imgur.com/R5H7zMm.jpeg" target="_blank" class="externalLink" rel="nofollow">Alternate Artwork 7</a></b> | <b><a href="https://i.imgur.com/SSmmHCb.jpeg" target="_blank" class="externalLink" rel="nofollow">Alternate Artwork 8</a></b> | <b><a href="https://i.imgur.com/oh77pRO.jpeg" target="_blank" class="externalLink" rel="nofollow">Alternate Artwork 9</a></b> | <b><a href="https://i.imgur.com/HxB8WzW.jpeg" target="_blank" class="externalLink" rel="nofollow">Header 1</a></b> | <b><a href="https://i.imgur.com/37r79tD.jpeg" target="_blank" class="externalLink" rel="nofollow">Header 2</a></b> | <b><a href="https://i.imgur.com/IY4Tnzf.png" target="_blank" class="externalLink" rel="nofollow">Poster 1</a></b> | <b><a href="https://i.imgur.com/G6UI7Zk.jpeg" target="_blank" class="externalLink" rel="nofollow">Poster 2</a></b> | <b><a href="https://i.imgur.com/VQMHtU0.png" target="_blank" class="externalLink" rel="nofollow">Poster 3</a></b> | <b><a href="https://i.imgur.com/xj9E8Qx.png" target="_blank" class="externalLink" rel="nofollow">Poster 4</a></b> | <b><a href="https://i.imgur.com/CpRJVXz.jpeg" target="_blank" class="externalLink" rel="nofollow">Thumbnail 1</a></b> | <b><a href="https://i.imgur.com/0RSOIOq.jpeg" target="_blank" class="externalLink" rel="nofollow">Thumbnail 2</a></b> | <b><a href="https://i.imgur.com/e4YjUKe.jpeg" target="_blank" class="externalLink" rel="nofollow">Thumbnail 3</a></b> | <b><a href="https://i.imgur.com/JGSTOu7.jpeg" target="_blank" class="externalLink" rel="nofollow">Key Art</a></b><br>
<br>
<img src="https://i.imgur.com/7yywML8.png" class="bbCodeImage LbImage" alt="[​IMG]" data-url="https://i.imgur.com/7yywML8.png" style=""> <img src="https://i.imgur.com/ckHEWYh.png" class="bbCodeImage LbImage" alt="[​IMG]" data-url="https://i.imgur.com/ckHEWYh.png" style=""> <img src="https://i.imgur.com/wGbLQp4.png" class="bbCodeImage LbImage" alt="[​IMG]" data-url="https://i.imgur.com/wGbLQp4.png" style=""> <img src="https://i.imgur.com/p2a3QKq.png" class="bbCodeImage LbImage" alt="[​IMG]" data-url="https://i.imgur.com/p2a3QKq.png" style=""><br>
2015 • 1h 54m<br>
Coming of Age, Fantasy, Musical<br>
<br>
<div class="bbCodeBlock bbCodeQuote">
<aside>
<blockquote class="quoteContainer"><div class="quote"><b><span style="font-size: 15px"><span style="font-family: 'Arial'">Description</span></span></b><br>
Disney’s most notorious villains and their descendants are imprisoned on a forbidden island. But when the benevolent teenage son of King Beast and Queen Belle takes the throne, he offers the trouble-making offspring a shot at redemption. With the kingdom's fate now in their hands, will they help all the villains regain power...or embrace their innate goodness and save the kingdom?</div><div class="quoteExpand">Click to expand...</div></blockquote>
</aside>
</div>
<div class="bbCodeBlock bbCodeQuote">
<aside>
<blockquote class="quoteContainer"><div class="quote"><b><span style="font-size: 15px"><span style="font-family: 'Arial'">More Information</span></span></b><br>
<b>Long Description:</b><br>
In a present-day idyllic kingdom, the benevolent teenage son of the King and Queen (Beast and Belle from Disney's Beauty and the Beast) is poised to take the throne. His first proclamation: offer a chance at redemption to the trouble-making offspring of Cruella, Maleficent, the Evil Queen and Jafar, who have been imprisoned on a forbidden island with all the other villains, sidekicks, evil stepmothers and stepsisters. These villainous descendants—Carlos, Mal, Evie and Jay, respectively—are allowed into the kingdom to attend prep school alongside the offspring of iconic Disney heroes, including Fairy Godmother, Sleeping Beauty, Rapunzel and Mulan. However, the evil teens face a dilemma: should they follow in their nefarious parents' footsteps and help all the villains regain power, or embrace their innate goodness and save the kingdom?<br>
<b>Duration:</b> 1h 54m<br>
<b>Release Date:</b> 2015<br>
<b>Genre:</b> Coming of Age, Fantasy, Musical<br>
<b>Rating:</b> <img src="https://i.imgur.com/7yywML8.png" class="bbCodeImage LbImage" alt="[​IMG]" data-url="https://i.imgur.com/7yywML8.png" style=""><br>
<b>Available in the following formats:</b> <img src="https://i.imgur.com/ckHEWYh.png" class="bbCodeImage LbImage" alt="[​IMG]" data-url="https://i.imgur.com/ckHEWYh.png" style=""> <img src="https://i.imgur.com/gx1o7rO.png" class="bbCodeImage LbImage" alt="[​IMG]" data-url="https://i.imgur.com/gx1o7rO.png" style=""> <img src="https://i.imgur.com/wGbLQp4.png" class="bbCodeImage LbImage" alt="[​IMG]" data-url="https://i.imgur.com/wGbLQp4.png" style=""> <img src="https://i.imgur.com/p2a3QKq.png" class="bbCodeImage LbImage" alt="[​IMG]" data-url="https://i.imgur.com/p2a3QKq.png" style=""><br>
<b>Director:</b> Kenny Ortega<br>
<b>Starring:</b> Dove Cameron, Cameron Boyce, Booboo Stewart, Sofia Carson, Mitchell Hope, Melanie Paxson</div><div class="quoteExpand quoteCut">Click to expand...</div></blockquote>
</aside>
</div>
<div class="bbCodeBlock bbCodeQuote">
<aside>
<blockquote class="quoteContainer"><div class="quote"><b><span style="font-size: 15px">Source</span></b><br>
<img src="https://i.imgur.com/I198e8q.png" class="bbCodeImage LbImage" alt="[​IMG]" data-url="https://i.imgur.com/I198e8q.png" style=""></div><div class="quoteExpand">Click to expand...</div></blockquote>
</aside>
</div>
<div class="bbCodeBlock bbCodeQuote">
<aside>
<blockquote class="quoteContainer"><div class="quote"><b><span style="font-size: 15px">Release Name</span></b><br>
Descendants.2015.1080p.DSNP.WEB-DL.DDP5.1.H.264-Samuel</div><div class="quoteExpand">Click to expand...</div></blockquote>
</aside>
</div>
<div class="ToggleTriggerAnchor bbCodeSpoilerContainer">
<button type="button" class="button bbCodeSpoilerButton ToggleTrigger Tooltip JsOnly" data-target="> .SpoilerTarget"><span>Spoiler: <span class="SpoilerTitle">Media Information</span></span></button>
<div class="SpoilerTarget bbCodeSpoilerText">General<br>
Complete name : Descendants.2015.1080p.DSNP.WEB-DL.DDP5.1.H.264-Samuel.mkv<br>
Format : Matroska<br>
Format version : Version 4<br>
File size : 7.76 GiB<br>
Duration : 1 h 51 min<br>
Overall bit rate mode : Variable<br>
Overall bit rate : 9 937 kb/s<br>
Frame rate : 23.976 FPS<br>
Encoded date : 2024-04-14 15:26:58 UTC<br>
Writing application : mkvmerge v83.0 ('Circle Of Friends') 64-bit<br>
Writing library : libebml v1.4.5 + libmatroska v1.7.1<br>
<br>
Video<br>
ID : 1<br>
Format : AVC<br>
Format/Info : Advanced Video Codec<br>
Format profile : High@L4<br>
Format settings : CABAC / 4 Ref Frames<br>
Format settings, CABAC : Yes<br>
Format settings, Reference frames : 4 frames<br>
Codec ID : V_MPEG4/ISO/AVC<br>
Duration : 1 h 51 min<br>
Bit rate mode : Variable<br>
Bit rate : 6 896 kb/s<br>
Maximum bit rate : 12.7 Mb/s<br>
Width : 1 920 pixels<br>
Height : 1 080 pixels<br>
Display aspect ratio : 16:9<br>
Frame rate mode : Constant<br>
Frame rate : 23.976 (24000/1001) FPS<br>
Color space : YUV<br>
Chroma subsampling : 4:2:0<br>
Bit depth : 8 bits<br>
Scan type : Progressive<br>
Bits/(Pixel*Frame) : 0.139<br>
Time code of first frame : 00:00:00;00<br>
Stream size : 5.39 GiB (69%)<br>
Default : Yes<br>
Forced : No<br>
Color range : Limited<br>
Color primaries : BT.709<br>
Transfer characteristics : BT.709<br>
Matrix coefficients : BT.709<br>
<br>
Audio #1<br>
ID : 2<br>
Format : E-AC-3<br>
Format/Info : Enhanced AC-3<br>
Commercial name : Dolby Digital Plus<br>
Codec ID : A_EAC3<br>
Duration : 1 h 51 min<br>
Bit rate mode : Constant<br>
Bit rate : 256 kb/s<br>
Channel(s) : 6 channels<br>
Channel layout : L R C LFE Ls Rs<br>
Sampling rate : 48.0 kHz<br>
Frame rate : 31.250 FPS (1536 SPF)<br>
Compression mode : Lossy<br>
Stream size : 205 MiB (3%)<br>
Language : English<br>
Service kind : Complete Main<br>
Default : Yes<br>
Forced : No<br>
<br>
Audio #2<br>
ID : 3<br>
Format : AAC LC<br>
Format/Info : Advanced Audio Codec Low Complexity<br>
Codec ID : A_AAC-2<br>
Duration : 1 h 51 min<br>
Bit rate : 125 kb/s<br>
Channel(s) : 2 channels<br>
Channel layout : L R<br>
Sampling rate : 48.0 kHz<br>
Frame rate : 46.875 FPS (1024 SPF)<br>
Compression mode : Lossy<br>
Stream size : 100 MiB (1%)<br>
Title : Audio Description<br>
Language : English<br>
Default : No<br>
Forced : No<br>
<br>
Audio #3<br>
ID : 4<br>
Format : AAC LC<br>
Format/Info : Advanced Audio Codec Low Complexity<br>
Codec ID : A_AAC-2<br>
Duration : 1 h 51 min<br>
Bit rate : 125 kb/s<br>
Channel(s) : 2 channels<br>
Channel layout : L R<br>
Sampling rate : 48.0 kHz<br>
Frame rate : 46.875 FPS (1024 SPF)<br>
Compression mode : Lossy<br>
Stream size : 100 MiB (1%)<br>
Title : Taiwanese Mandarin<br>
Language : Chinese<br>
Default : No<br>
Forced : No<br>
<br>
Audio #4<br>
ID : 5<br>
Format : AAC LC<br>
Format/Info : Advanced Audio Codec Low Complexity<br>
Codec ID : A_AAC-2<br>
Duration : 1 h 51 min<br>
Bit rate : 125 kb/s<br>
Channel(s) : 2 channels<br>
Channel layout : L R<br>
Sampling rate : 48.0 kHz<br>
Frame rate : 46.875 FPS (1024 SPF)<br>
Compression mode : Lossy<br>
Stream size : 100 MiB (1%)<br>
Language : Czech<br>
Default : No<br>
Forced : No<br>
<br>
Audio #5<br>
ID : 6<br>
Format : AAC LC<br>
Format/Info : Advanced Audio Codec Low Complexity<br>
Codec ID : A_AAC-2<br>
Duration : 1 h 51 min<br>
Bit rate : 125 kb/s<br>
Channel(s) : 2 channels<br>
Channel layout : L R<br>
Sampling rate : 48.0 kHz<br>
Frame rate : 46.875 FPS (1024 SPF)<br>
Compression mode : Lossy<br>
Stream size : 100 MiB (1%)<br>
Language : Danish<br>
Default : No<br>
Forced : No<br>
<br>
Audio #6<br>
ID : 7<br>
Format : AAC LC<br>
Format/Info : Advanced Audio Codec Low Complexity<br>
Codec ID : A_AAC-2<br>
Duration : 1 h 51 min<br>
Bit rate : 125 kb/s<br>
Channel(s) : 2 channels<br>
Channel layout : L R<br>
Sampling rate : 48.0 kHz<br>
Frame rate : 46.875 FPS (1024 SPF)<br>
Compression mode : Lossy<br>
Stream size : 100 MiB (1%)<br>
Language : German<br>
Default : No<br>
Forced : No<br>
<br>
Audio #7<br>
ID : 8<br>
Format : AAC LC<br>
Format/Info : Advanced Audio Codec Low Complexity<br>
Codec ID : A_AAC-2<br>
Duration : 1 h 51 min<br>
Bit rate : 125 kb/s<br>
Channel(s) : 2 channels<br>
Channel layout : L R<br>
Sampling rate : 48.0 kHz<br>
Frame rate : 46.875 FPS (1024 SPF)<br>
Compression mode : Lossy<br>
Stream size : 100 MiB (1%)<br>
Language : Greek<br>
Default : No<br>
Forced : No<br>
<br>
Audio #8<br>
ID : 9<br>
Format : AAC LC<br>
Format/Info : Advanced Audio Codec Low Complexity<br>
Codec ID : A_AAC-2<br>
Duration : 1 h 51 min<br>
Bit rate : 125 kb/s<br>
Channel(s) : 2 channels<br>
Channel layout : L R<br>
Sampling rate : 48.0 kHz<br>
Frame rate : 46.875 FPS (1024 SPF)<br>
Compression mode : Lossy<br>
Stream size : 100 MiB (1%)<br>
Title : Latin American<br>
Language : Spanish<br>
Default : No<br>
Forced : No<br>
<br>
Audio #9<br>
ID : 10<br>
Format : AAC LC<br>
Format/Info : Advanced Audio Codec Low Complexity<br>
Codec ID : A_AAC-2<br>
Duration : 1 h 51 min<br>
Bit rate : 125 kb/s<br>
Channel(s) : 2 channels<br>
Channel layout : L R<br>
Sampling rate : 48.0 kHz<br>
Frame rate : 46.875 FPS (1024 SPF)<br>
Compression mode : Lossy<br>
Stream size : 100 MiB (1%)<br>
Title : European<br>
Language : Spanish<br>
Default : No<br>
Forced : No<br>
<br>
Audio #10<br>
ID : 11<br>
Format : AAC LC<br>
Format/Info : Advanced Audio Codec Low Complexity<br>
Codec ID : A_AAC-2<br>
Duration : 1 h 51 min<br>
Bit rate : 125 kb/s<br>
Channel(s) : 2 channels<br>
Channel layout : L R<br>
Sampling rate : 48.0 kHz<br>
Frame rate : 46.875 FPS (1024 SPF)<br>
Compression mode : Lossy<br>
Stream size : 100 MiB (1%)<br>
Language : French<br>
Default : No<br>
Forced : No<br>
<br>
Audio #11<br>
ID : 12<br>
Format : AAC LC<br>
Format/Info : Advanced Audio Codec Low Complexity<br>
Codec ID : A_AAC-2<br>
Duration : 1 h 51 min<br>
Bit rate : 125 kb/s<br>
Channel(s) : 2 channels<br>
Channel layout : L R<br>
Sampling rate : 48.0 kHz<br>
Frame rate : 46.875 FPS (1024 SPF)<br>
Compression mode : Lossy<br>
Stream size : 100 MiB (1%)<br>
Language : Hungarian<br>
Default : No<br>
Forced : No<br>
<br>
Audio #12<br>
ID : 13<br>
Format : AAC LC<br>
Format/Info : Advanced Audio Codec Low Complexity<br>
Codec ID : A_AAC-2<br>
Duration : 1 h 51 min<br>
Bit rate : 125 kb/s<br>
Channel(s) : 2 channels<br>
Channel layout : L R<br>
Sampling rate : 48.0 kHz<br>
Frame rate : 46.875 FPS (1024 SPF)<br>
Compression mode : Lossy<br>
Stream size : 100 MiB (1%)<br>
Language : Italian<br>
Default : No<br>
Forced : No<br>
<br>
Audio #13<br>
ID : 14<br>
Format : E-AC-3<br>
Format/Info : Enhanced AC-3<br>
Commercial name : Dolby Digital Plus<br>
Codec ID : A_EAC3<br>
Duration : 1 h 51 min<br>
Bit rate mode : Constant<br>
Bit rate : 256 kb/s<br>
Channel(s) : 6 channels<br>
Channel layout : L R C LFE Ls Rs<br>
Sampling rate : 48.0 kHz<br>
Frame rate : 31.250 FPS (1536 SPF)<br>
Compression mode : Lossy<br>
Stream size : 205 MiB (3%)<br>
Language : Japanese<br>
Service kind : Complete Main<br>
Default : No<br>
Forced : No<br>
<br>
Audio #14<br>
ID : 15<br>
Format : AAC LC<br>
Format/Info : Advanced Audio Codec Low Complexity<br>
Codec ID : A_AAC-2<br>
Duration : 1 h 51 min<br>
Bit rate : 125 kb/s<br>
Channel(s) : 2 channels<br>
Channel layout : L R<br>
Sampling rate : 48.0 kHz<br>
Frame rate : 46.875 FPS (1024 SPF)<br>
Compression mode : Lossy<br>
Stream size : 100 MiB (1%)<br>
Language : Korean<br>
Default : No<br>
Forced : No<br>
<br>
Audio #15<br>
ID : 16<br>
Format : AAC LC<br>
Format/Info : Advanced Audio Codec Low Complexity<br>
Codec ID : A_AAC-2<br>
Duration : 1 h 51 min<br>
Bit rate : 125 kb/s<br>
Channel(s) : 2 channels<br>
Channel layout : L R<br>
Sampling rate : 48.0 kHz<br>
Frame rate : 46.875 FPS (1024 SPF)<br>
Compression mode : Lossy<br>
Stream size : 100 MiB (1%)<br>
Language : Dutch<br>
Default : No<br>
Forced : No<br>
<br>
Audio #16<br>
ID : 17<br>
Format : AAC LC<br>
Format/Info : Advanced Audio Codec Low Complexity<br>
Codec ID : A_AAC-2<br>
Duration : 1 h 51 min<br>
Bit rate : 125 kb/s<br>
Channel(s) : 2 channels<br>
Channel layout : L R<br>
Sampling rate : 48.0 kHz<br>
Frame rate : 46.875 FPS (1024 SPF)<br>
Compression mode : Lossy<br>
Stream size : 100 MiB (1%)<br>
Language : Norwegian<br>
Default : No<br>
Forced : No<br>
<br>
Audio #17<br>
ID : 18<br>
Format : AAC LC<br>
Format/Info : Advanced Audio Codec Low Complexity<br>
Codec ID : A_AAC-2<br>
Duration : 1 h 51 min<br>
Bit rate : 125 kb/s<br>
Channel(s) : 2 channels<br>
Channel layout : L R<br>
Sampling rate : 48.0 kHz<br>
Frame rate : 46.875 FPS (1024 SPF)<br>
Compression mode : Lossy<br>
Stream size : 100 MiB (1%)<br>
Language : Polish<br>
Default : No<br>
Forced : No<br>
<br>
Audio #18<br>
ID : 19<br>
Format : AAC LC<br>
Format/Info : Advanced Audio Codec Low Complexity<br>
Codec ID : A_AAC-2<br>
Duration : 1 h 51 min<br>
Bit rate : 125 kb/s<br>
Channel(s) : 2 channels<br>
Channel layout : L R<br>
Sampling rate : 48.0 kHz<br>
Frame rate : 46.875 FPS (1024 SPF)<br>
Compression mode : Lossy<br>
Stream size : 100 MiB (1%)<br>
Title : Brazilian<br>
Language : Portuguese<br>
Default : No<br>
Forced : No<br>
<br>
Audio #19<br>
ID : 20<br>
Format : AAC LC<br>
Format/Info : Advanced Audio Codec Low Complexity<br>
Codec ID : A_AAC-2<br>
Duration : 1 h 51 min<br>
Bit rate : 125 kb/s<br>
Channel(s) : 2 channels<br>
Channel layout : L R<br>
Sampling rate : 48.0 kHz<br>
Frame rate : 46.875 FPS (1024 SPF)<br>
Compression mode : Lossy<br>
Stream size : 100 MiB (1%)<br>
Title : European<br>
Language : Portuguese<br>
Default : No<br>
Forced : No<br>
<br>
Audio #20<br>
ID : 21<br>
Format : AAC LC<br>
Format/Info : Advanced Audio Codec Low Complexity<br>
Codec ID : A_AAC-2<br>
Duration : 1 h 51 min<br>
Bit rate : 125 kb/s<br>
Channel(s) : 2 channels<br>
Channel layout : L R<br>
Sampling rate : 48.0 kHz<br>
Frame rate : 46.875 FPS (1024 SPF)<br>
Compression mode : Lossy<br>
Stream size : 100 MiB (1%)<br>
Language : Romanian<br>
Default : No<br>
Forced : No<br>
<br>
Audio #21<br>
ID : 22<br>
Format : AAC LC<br>
Format/Info : Advanced Audio Codec Low Complexity<br>
Codec ID : A_AAC-2<br>
Duration : 1 h 51 min<br>
Bit rate : 125 kb/s<br>
Channel(s) : 2 channels<br>
Channel layout : L R<br>
Sampling rate : 48.0 kHz<br>
Frame rate : 46.875 FPS (1024 SPF)<br>
Compression mode : Lossy<br>
Stream size : 100 MiB (1%)<br>
Language : Swedish<br>
Default : No<br>
Forced : No<br>
<br>
Audio #22<br>
ID : 23<br>
Format : AAC LC<br>
Format/Info : Advanced Audio Codec Low Complexity<br>
Codec ID : A_AAC-2<br>
Duration : 1 h 51 min<br>
Bit rate : 125 kb/s<br>
Channel(s) : 2 channels<br>
Channel layout : L R<br>
Sampling rate : 48.0 kHz<br>
Frame rate : 46.875 FPS (1024 SPF)<br>
Compression mode : Lossy<br>
Stream size : 100 MiB (1%)<br>
Language : Turkish<br>
Default : No<br>
Forced : No<br>
<br>
Text #1<br>
ID : 24<br>
Format : UTF-8<br>
Codec ID : S_TEXT/UTF8<br>
Codec ID/Info : UTF-8 Plain Text<br>
Duration : 1 h 50 min<br>
Bit rate : 73 b/s<br>
Frame rate : 0.305 FPS<br>
Count of elements : 2019<br>
Stream size : 59.5 KiB (0%)<br>
Title : SDH<br>
Language : English<br>
Default : No<br>
Forced : No<br>
<br>
Text #2<br>
ID : 25<br>
Format : UTF-8<br>
Codec ID : S_TEXT/UTF8<br>
Codec ID/Info : UTF-8 Plain Text<br>
Duration : 1 h 50 min<br>
Bit rate : 59 b/s<br>
Frame rate : 0.275 FPS<br>
Count of elements : 1814<br>
Stream size : 48.1 KiB (0%)<br>
Language : Czech<br>
Default : No<br>
Forced : No<br>
<br>
Text #3<br>
ID : 26<br>
Format : UTF-8<br>
Codec ID : S_TEXT/UTF8<br>
Codec ID/Info : UTF-8 Plain Text<br>
Duration : 1 h 51 min<br>
Bit rate : 15 b/s<br>
Frame rate : 0.049 FPS<br>
Count of elements : 328<br>
Stream size : 13.0 KiB (0%)<br>
Title : Forced<br>
Language : Danish<br>
Default : No<br>
Forced : Yes<br>
<br>
Text #4<br>
ID : 27<br>
Format : UTF-8<br>
Codec ID : S_TEXT/UTF8<br>
Codec ID/Info : UTF-8 Plain Text<br>
Duration : 1 h 50 min<br>
Bit rate : 65 b/s<br>
Frame rate : 0.278 FPS<br>
Count of elements : 1839<br>
Stream size : 52.6 KiB (0%)<br>
Language : Danish<br>
Default : No<br>
Forced : No<br>
<br>
Text #5<br>
ID : 28<br>
Format : UTF-8<br>
Codec ID : S_TEXT/UTF8<br>
Codec ID/Info : UTF-8 Plain Text<br>
Duration : 1 h 50 min<br>
Bit rate : 12 b/s<br>
Frame rate : 0.036 FPS<br>
Count of elements : 236<br>
Stream size : 10.2 KiB (0%)<br>
Title : Forced<br>
Language : German<br>
Default : No<br>
Forced : Yes<br>
<br>
Text #6<br>
ID : 29<br>
Format : UTF-8<br>
Codec ID : S_TEXT/UTF8<br>
Codec ID/Info : UTF-8 Plain Text<br>
Duration : 1 h 50 min<br>
Bit rate : 69 b/s<br>
Frame rate : 0.276 FPS<br>
Count of elements : 1825<br>
Stream size : 56.1 KiB (0%)<br>
Language : German<br>
Default : No<br>
Forced : No<br>
<br>
Text #7<br>
ID : 30<br>
Format : UTF-8<br>
Codec ID : S_TEXT/UTF8<br>
Codec ID/Info : UTF-8 Plain Text<br>
Duration : 1 h 50 min<br>
Bit rate : 107 b/s<br>
Frame rate : 0.271 FPS<br>
Count of elements : 1795<br>
Stream size : 87.1 KiB (0%)<br>
Language : Greek<br>
Default : No<br>
Forced : No<br>
<br>
Text #8<br>
ID : 31<br>
Format : UTF-8<br>
Codec ID : S_TEXT/UTF8<br>
Codec ID/Info : UTF-8 Plain Text<br>
Duration : 1 h 21 min<br>
Bit rate : 0 b/s<br>
Frame rate : 0.004 FPS<br>
Count of elements : 19<br>
Stream size : 453 Bytes (0%)<br>
Title : Latin American (Forced)<br>
Language : Spanish<br>
Default : No<br>
Forced : Yes<br>
<br>
Text #9<br>
ID : 32<br>
Format : UTF-8<br>
Codec ID : S_TEXT/UTF8<br>
Codec ID/Info : UTF-8 Plain Text<br>
Duration : 1 h 50 min<br>
Bit rate : 67 b/s<br>
Frame rate : 0.278 FPS<br>
Count of elements : 1838<br>
Stream size : 54.2 KiB (0%)<br>
Title : Latin American<br>
Language : Spanish<br>
Default : No<br>
Forced : No<br>
<br>
Text #10<br>
ID : 33<br>
Format : UTF-8<br>
Codec ID : S_TEXT/UTF8<br>
Codec ID/Info : UTF-8 Plain Text<br>
Duration : 1 h 49 min<br>
Bit rate : 13 b/s<br>
Frame rate : 0.044 FPS<br>
Count of elements : 290<br>
Stream size : 10.8 KiB (0%)<br>
Title : European (Forced)<br>
Language : Spanish<br>
Default : No<br>
Forced : Yes<br>
<br>
Text #11<br>
ID : 34<br>
Format : UTF-8<br>
Codec ID : S_TEXT/UTF8<br>
Codec ID/Info : UTF-8 Plain Text<br>
Duration : 1 h 50 min<br>
Bit rate : 66 b/s<br>
Frame rate : 0.276 FPS<br>
Count of elements : 1822<br>
Stream size : 53.7 KiB (0%)<br>
Title : European<br>
Language : Spanish<br>
Default : No<br>
Forced : No<br>
<br>
Text #12<br>
ID : 35<br>
Format : UTF-8<br>
Codec ID : S_TEXT/UTF8<br>
Codec ID/Info : UTF-8 Plain Text<br>
Duration : 1 h 50 min<br>
Bit rate : 59 b/s<br>
Frame rate : 0.277 FPS<br>
Count of elements : 1831<br>
Stream size : 48.0 KiB (0%)<br>
Language : Finnish<br>
Default : No<br>
Forced : No<br>
<br>
Text #13<br>
ID : 36<br>
Format : UTF-8<br>
Codec ID : S_TEXT/UTF8<br>
Codec ID/Info : UTF-8 Plain Text<br>
Duration : 1 h 50 min<br>
Bit rate : 12 b/s<br>
Frame rate : 0.046 FPS<br>
Count of elements : 306<br>
Stream size : 10.1 KiB (0%)<br>
Title : Forced<br>
Language : French<br>
Default : No<br>
Forced : Yes<br>
<br>
Text #14<br>
ID : 37<br>
Format : UTF-8<br>
Codec ID : S_TEXT/UTF8<br>
Codec ID/Info : UTF-8 Plain Text<br>
Duration : 1 h 50 min<br>
Bit rate : 75 b/s<br>
Frame rate : 0.279 FPS<br>
Count of elements : 1848<br>
Stream size : 60.9 KiB (0%)<br>
Title : SDH<br>
Language : French<br>
Default : No<br>
Forced : No<br>
<br>
Text #15<br>
ID : 38<br>
Format : UTF-8<br>
Codec ID : S_TEXT/UTF8<br>
Codec ID/Info : UTF-8 Plain Text<br>
Duration : 1 h 50 min<br>
Bit rate : 63 b/s<br>
Frame rate : 0.272 FPS<br>
Count of elements : 1797<br>
Stream size : 51.0 KiB (0%)<br>
Language : Hungarian<br>
Default : No<br>
Forced : No<br>
<br>
Text #16<br>
ID : 39<br>
Format : UTF-8<br>
Codec ID : S_TEXT/UTF8<br>
Codec ID/Info : UTF-8 Plain Text<br>
Duration : 1 h 21 min<br>
Bit rate : 0 b/s<br>
Frame rate : 0.003 FPS<br>
Count of elements : 17<br>
Stream size : 371 Bytes (0%)<br>
Title : Forced<br>
Language : Italian<br>
Default : No<br>
Forced : Yes<br>
<br>
Text #17<br>
ID : 40<br>
Format : UTF-8<br>
Codec ID : S_TEXT/UTF8<br>
Codec ID/Info : UTF-8 Plain Text<br>
Duration : 1 h 50 min<br>
Bit rate : 67 b/s<br>
Frame rate : 0.278 FPS<br>
Count of elements : 1837<br>
Stream size : 54.5 KiB (0%)<br>
Language : Italian<br>
Default : No<br>
Forced : No<br>
<br>
Text #18<br>
ID : 41<br>
Format : UTF-8<br>
Codec ID : S_TEXT/UTF8<br>
Codec ID/Info : UTF-8 Plain Text<br>
Duration : 1 h 45 min<br>
Bit rate : 8 b/s<br>
Frame rate : 0.031 FPS<br>
Count of elements : 197<br>
Stream size : 6.91 KiB (0%)<br>
Title : Forced<br>
Language : Japanese<br>
Default : No<br>
Forced : Yes<br>
<br>
Text #19<br>
ID : 42<br>
Format : UTF-8<br>
Codec ID : S_TEXT/UTF8<br>
Codec ID/Info : UTF-8 Plain Text<br>
Duration : 1 h 49 min<br>
Bit rate : 51 b/s<br>
Frame rate : 0.233 FPS<br>
Count of elements : 1537<br>
Stream size : 41.7 KiB (0%)<br>
Language : Japanese<br>
Default : No<br>
Forced : No<br>
<br>
Text #20<br>
ID : 43<br>
Format : UTF-8<br>
Codec ID : S_TEXT/UTF8<br>
Codec ID/Info : UTF-8 Plain Text<br>
Duration : 1 h 22 min<br>
Bit rate : 1 b/s<br>
Frame rate : 0.004 FPS<br>
Count of elements : 22<br>
Stream size : 633 Bytes (0%)<br>
Title : Forced<br>
Language : Korean<br>
Default : No<br>
Forced : Yes<br>
<br>
Text #21<br>
ID : 44<br>
Format : UTF-8<br>
Codec ID : S_TEXT/UTF8<br>
Codec ID/Info : UTF-8 Plain Text<br>
Duration : 1 h 50 min<br>
Bit rate : 73 b/s<br>
Frame rate : 0.279 FPS<br>
Count of elements : 1842<br>
Stream size : 59.5 KiB (0%)<br>
Language : Korean<br>
Default : No<br>
Forced : No<br>
<br>
Text #22<br>
ID : 45<br>
Format : UTF-8<br>
Codec ID : S_TEXT/UTF8<br>
Codec ID/Info : UTF-8 Plain Text<br>
Duration : 1 h 51 min<br>
Bit rate : 52 b/s<br>
Frame rate : 0.186 FPS<br>
Count of elements : 1249<br>
Stream size : 43.3 KiB (0%)<br>
Language : Dutch<br>
Default : No<br>
Forced : No<br>
<br>
Text #23<br>
ID : 46<br>
Format : UTF-8<br>
Codec ID : S_TEXT/UTF8<br>
Codec ID/Info : UTF-8 Plain Text<br>
Duration : 1 h 51 min<br>
Bit rate : 11 b/s<br>
Frame rate : 0.030 FPS<br>
Count of elements : 201<br>
Stream size : 9.11 KiB (0%)<br>
Title : Forced<br>
Language : Dutch<br>
Default : No<br>
Forced : Yes<br>
<br>
Text #24<br>
ID : 47<br>
Format : UTF-8<br>
Codec ID : S_TEXT/UTF8<br>
Codec ID/Info : UTF-8 Plain Text<br>
Duration : 1 h 50 min<br>
Bit rate : 14 b/s<br>
Frame rate : 0.049 FPS<br>
Count of elements : 327<br>
Stream size : 11.9 KiB (0%)<br>
Title : Forced<br>
Language : Norwegian<br>
Default : No<br>
Forced : Yes<br>
<br>
Text #25<br>
ID : 48<br>
Format : UTF-8<br>
Codec ID : S_TEXT/UTF8<br>
Codec ID/Info : UTF-8 Plain Text<br>
Duration : 1 h 50 min<br>
Bit rate : 67 b/s<br>
Frame rate : 0.278 FPS<br>
Count of elements : 1839<br>
Stream size : 54.5 KiB (0%)<br>
Language : Norwegian<br>
Default : No<br>
Forced : No<br>
<br>
Text #26<br>
ID : 49<br>
Format : UTF-8<br>
Codec ID : S_TEXT/UTF8<br>
Codec ID/Info : UTF-8 Plain Text<br>
Duration : 1 h 50 min<br>
Bit rate : 58 b/s<br>
Frame rate : 0.255 FPS<br>
Count of elements : 1682<br>
Stream size : 47.4 KiB (0%)<br>
Language : Polish<br>
Default : No<br>
Forced : No<br>
<br>
Text #27<br>
ID : 50<br>
Format : UTF-8<br>
Codec ID : S_TEXT/UTF8<br>
Codec ID/Info : UTF-8 Plain Text<br>
Duration : 1 h 50 min<br>
Bit rate : 62 b/s<br>
Frame rate : 0.278 FPS<br>
Count of elements : 1840<br>
Stream size : 50.2 KiB (0%)<br>
Title : Brazilian<br>
Language : Portuguese<br>
Default : No<br>
Forced : No<br>
<br>
Text #28<br>
ID : 51<br>
Format : UTF-8<br>
Codec ID : S_TEXT/UTF8<br>
Codec ID/Info : UTF-8 Plain Text<br>
Duration : 1 h 5 min<br>
Bit rate : 0 b/s<br>
Frame rate : 0.003 FPS<br>
Count of elements : 12<br>
Stream size : 225 Bytes (0%)<br>
Title : Brazilian (Forced)<br>
Language : Portuguese<br>
Default : No<br>
Forced : Yes<br>
<br>
Text #29<br>
ID : 52<br>
Format : UTF-8<br>
Codec ID : S_TEXT/UTF8<br>
Codec ID/Info : UTF-8 Plain Text<br>
Duration : 1 h 51 min<br>
Bit rate : 63 b/s<br>
Frame rate : 0.262 FPS<br>
Count of elements : 1754<br>
Stream size : 51.8 KiB (0%)<br>
Title : European<br>
Language : Portuguese<br>
Default : No<br>
Forced : No<br>
<br>
Text #30<br>
ID : 53<br>
Format : UTF-8<br>
Codec ID : S_TEXT/UTF8<br>
Codec ID/Info : UTF-8 Plain Text<br>
Duration : 1 h 51 min<br>
Bit rate : 10 b/s<br>
Frame rate : 0.044 FPS<br>
Count of elements : 293<br>
Stream size : 8.60 KiB (0%)<br>
Title : European (Forced)<br>
Language : Portuguese<br>
Default : No<br>
Forced : Yes<br>
<br>
Text #31<br>
ID : 54<br>
Format : UTF-8<br>
Codec ID : S_TEXT/UTF8<br>
Codec ID/Info : UTF-8 Plain Text<br>
Duration : 1 h 50 min<br>
Bit rate : 58 b/s<br>
Frame rate : 0.256 FPS<br>
Count of elements : 1694<br>
Stream size : 47.1 KiB (0%)<br>
Language : Romanian<br>
Default : No<br>
Forced : No<br>
<br>
Text #32<br>
ID : 55<br>
Format : UTF-8<br>
Codec ID : S_TEXT/UTF8<br>
Codec ID/Info : UTF-8 Plain Text<br>
Duration : 1 h 50 min<br>
Bit rate : 15 b/s<br>
Frame rate : 0.049 FPS<br>
Count of elements : 322<br>
Stream size : 12.5 KiB (0%)<br>
Title : Forced<br>
Language : Swedish<br>
Default : No<br>
Forced : Yes<br>
<br>
Text #33<br>
ID : 56<br>
Format : UTF-8<br>
Codec ID : S_TEXT/UTF8<br>
Codec ID/Info : UTF-8 Plain Text<br>
Duration : 1 h 50 min<br>
Bit rate : 66 b/s<br>
Frame rate : 0.278 FPS<br>
Count of elements : 1839<br>
Stream size : 53.6 KiB (0%)<br>
Language : Swedish<br>
Default : No<br>
Forced : No<br>
<br>
Text #34<br>
ID : 57<br>
Format : UTF-8<br>
Codec ID : S_TEXT/UTF8<br>
Codec ID/Info : UTF-8 Plain Text<br>
Duration : 1 h 50 min<br>
Bit rate : 64 b/s<br>
Frame rate : 0.271 FPS<br>
Count of elements : 1794<br>
Stream size : 52.0 KiB (0%)<br>
Language : Turkish<br>
Default : No<br>
Forced : No<br>
<br>
Text #35<br>
ID : 58<br>
Format : UTF-8<br>
Codec ID : S_TEXT/UTF8<br>
Codec ID/Info : UTF-8 Plain Text<br>
Duration : 1 h 50 min<br>
Bit rate : 51 b/s<br>
Frame rate : 0.279 FPS<br>
Count of elements : 1842<br>
Stream size : 41.5 KiB (0%)<br>
Title : Traditional, Hong Kong<br>
Language : Chinese<br>
Default : No<br>
Forced : No<br>
<br>
Text #36<br>
ID : 59<br>
Format : UTF-8<br>
Codec ID : S_TEXT/UTF8<br>
Codec ID/Info : UTF-8 Plain Text<br>
Duration : 1 h 50 min<br>
Bit rate : 55 b/s<br>
Frame rate : 0.279 FPS<br>
Count of elements : 1842<br>
Stream size : 44.8 KiB (0%)<br>
Title : Traditional<br>
Language : Chinese<br>
Default : No<br>
Forced : No<br>
<br>
Menu<br>
00:32:36.832 : en:Scene 1<br>
01:06:00.210 : en:Scene 2<br>
01:29:45.177 : en:Scene 3<br>
01:50:25.626 : en:Credits</div>
</div><br>
<b>Screenshots</b><br>
<img src="https://i.imgur.com/C8yfy8S.png" class="bbCodeImage LbImage" alt="[​IMG]" data-url="https://i.imgur.com/C8yfy8S.png" style=""><br>
<br>
<b>Download</b><br>
<div class="bbCodeBlock bbCodeVfcHH HiddenContent">
<div class="attribution type">Hidden Content:</div>
<blockquote>You must reply before you can see the hidden data contained here.</blockquote>
</div></div>
<div class="messageTextEndMarker">&nbsp;</div>
</blockquote>
</article>]]></description>
                <author><![CDATA[Samuel]]></author>
                </item>

                
                <item>
                <title><![CDATA[【Music Videos】Culture Club - Do You Really Want To Hurt Me (Harmony Instrumental &amp; Vocal Mix) (VJ-RoGeRs Video Edit) (Clean)]]></title>
                <link><![CDATA[https://sharemania.us/threads/culture-club-do-you-really-want-to-hurt-me-harmony-instrumental-vocal-mix-vj-rogers-video-edit-clean.242222/]]></link>
                <description><![CDATA[<article>
<blockquote class="messageText SelectQuoteContainer ugc baseHtml">
<a href="https://sharemania.us/members/177796/" class="username" data-user="177796, @aesirefps">@aesirefps</a> <a href="https://sharemania.us/members/163669/" class="username" data-user="163669, @Dumdums">@Dumdums</a> <a href="https://sharemania.us/members/19910/" class="username" data-user="19910, @OhSnapItzTrey">@OhSnapItzTrey</a> <b>Request Completed</b>.
<div class="messageTextEndMarker">&nbsp;</div>
</blockquote>
</article>]]></description>
                <author><![CDATA[DJ-RoGeRs-BS]]></author>
                </item>

                
                <item>
                <title><![CDATA[【Unreleased/Unofficial (lossless)】FLAC - Queen - Best Ballads]]></title>
                <link><![CDATA[https://sharemania.us/threads/queen-best-ballads.242202/]]></link>
                <description><![CDATA[<article>
<blockquote class="messageText SelectQuoteContainer ugc baseHtml">
Thanks
<div class="messageTextEndMarker">&nbsp;</div>
</blockquote>
</article>]]></description>
                <author><![CDATA[jesaispas]]></author>
                </item>

                
                <item>
                <title><![CDATA[【Albums (lossless)】FLAC - Linkin Park - Living Things [Qobuz Hi-Res 24bits/44.1kHz]]]></title>
                <link><![CDATA[https://sharemania.us/threads/linkin-park-living-things-qobuz-hi-res-24bits-44-1khz.242218/]]></link>
                <description><![CDATA[<article>
<blockquote class="messageText SelectQuoteContainer ugc baseHtml">
<img src="https://i.ibb.co/FqWzWyQ/Culture-Club-Do-You-Really-Want-To-Hurt-Me-Harmony-Instrumental-Vocal-Mix-VJ-Ro-Ge-Rs-Video-Edit-mp4.jpg" class="bbCodeImage LbImage" alt="[​IMG]" data-url="https://i.ibb.co/FqWzWyQ/Culture-Club-Do-You-Really-Want-To-Hurt-Me-Harmony-Instrumental-Vocal-Mix-VJ-Ro-Ge-Rs-Video-Edit-mp4.jpg" style=""> <br>
<br>
<div class="ToggleTriggerAnchor bbCodeSpoilerContainer">
<button type="button" class="button bbCodeSpoilerButton ToggleTrigger Tooltip JsOnly" data-target="> .SpoilerTarget"><span>Spoiler: <span class="SpoilerTitle">MediaInfo</span></span></button>
<div class="SpoilerTarget bbCodeSpoilerText">Culture Club - Do You Really Want To Hurt Me (Harmony Instrumental &amp; Vocal Mix) (VJ-RoGeRs Video Edit).mp4<br>
Format : MPEG-4<br>
Format profile : Base Media / Version 2<br>
Codec ID : mp42 (mp42/mp41)<br>
File size : 331 MiB<br>
Duration : 4 min 29 s<br>
Overall bit rate mode : Variable<br>
Overall bit rate : 10.3 Mb/s<br>
Frame rate : 29.970 FPS<br>
Encoded date : 2021-01-24 20:57:10 UTC<br>
Tagged date : 2021-01-24 20:57:32 UTC<br>
TIM : 00:00:00:00<br>
TSC : 30000<br>
TSZ : 1001<br>
<br>
Video<br>
ID : 1<br>
Format : AVC<br>
Format/Info : Advanced Video Codec<br>
Format profile : High@L3.1<br>
Format settings : CABAC / 4 Ref Frames<br>
Format settings, CABAC : Yes<br>
Format settings, Reference : 4 frames<br>
Codec ID : avc1<br>
Codec ID/Info : Advanced Video Coding<br>
Duration : 4 min 29 s<br>
Bit rate mode : Variable<br>
Bit rate : 9 973 kb/s<br>
Maximum bit rate : 12.0 Mb/s<br>
Width : 720 pixels<br>
Height : 480 pixels<br>
Display aspect ratio : 4:3<br>
Original display aspect rat : 4:3<br>
Frame rate mode : Constant<br>
Frame rate : 29.970 (30000/1001) FPS<br>
Standard : NTSC<br>
Color space : YUV<br>
Chroma subsampling : 4:2:0<br>
Bit depth : 8 bits<br>
Scan type : Interlaced<br>
Scan type, store method : Separated fields<br>
Scan order : Top Field First<br>
Bits/(Pixel*Frame) : 0.963<br>
Stream size : 321 MiB (97%)<br>
Language : English<br>
Encoded date : 2021-01-24 20:57:10 UTC<br>
Tagged date : 2021-01-24 20:57:10 UTC<br>
Color range : Limited<br>
Color primaries : BT.601 NTSC<br>
Transfer characteristics : BT.601<br>
Matrix coefficients : BT.601<br>
Codec configuration box : avcC<br>
<br>
Audio<br>
ID : 2<br>
Format : AAC LC<br>
Format/Info : Advanced Audio Codec Low Complexity<br>
Codec ID : mp4a-40-2<br>
Duration : 4 min 29 s<br>
Source duration : 4 min 29 s<br>
Bit rate mode : Variable<br>
Bit rate : 317 kb/s<br>
Maximum bit rate : 403 kb/s<br>
Channel(s) : 2 channels<br>
Channel layout : L R<br>
Sampling rate : 48.0 kHz<br>
Frame rate : 46.875 FPS (1024 SPF)<br>
Compression mode : Lossy<br>
Stream size : 10.2 MiB (3%)<br>
Source stream size : 10.2 MiB (3%)<br>
Language : English<br>
Encoded date : 2021-01-24 20:57:10 UTC<br>
Tagged date : 2021-01-24 20:57:10 UTC</div>
</div><br>
*Edición trabajada en base a multipistas, con el fin de sentir el tema de manera más armoniosa y escuchar otros sonidos que pasan desapercibidos! **Recomiendo escuchar con audífonos!!!<br>
**Edition worked based on multitracks, in order to feel the song in a more harmonious way and listen to other sounds that go unnoticed! **I recommend listening with headphones!!!<br>
<br>
<div class="bbCodeBlock bbCodeVfcHH HiddenContent">
<div class="attribution type">Hidden Content:</div>
<blockquote>You must reply before you can see the hidden data contained here.</blockquote>
</div>
<div class="messageTextEndMarker">&nbsp;</div>
</blockquote>
</article>]]></description>
                <author><![CDATA[abby0511]]></author>
                </item>

                
                <item>
                <title><![CDATA[【SD】DVD - Foster The People - Pumped Up Kicks (2011) (Promo Only) [VOB]]]></title>
                <link><![CDATA[https://sharemania.us/threads/foster-the-people-pumped-up-kicks-2011-promo-only-vob.242220/]]></link>
                <description><![CDATA[<article>
<blockquote class="messageText SelectQuoteContainer ugc baseHtml">
Discogs:<br>
<a href="https://www.discogs.com/release/7032389-Queen-Best-Ballads" target="_blank" class="externalLink" rel="nofollow">https://www.discogs.com/release/7032389-Queen-Best-Ballads</a><br>
<img src="https://i.discogs.com/p-Wouq2HCiWm_SnpCFF5MUffileoguJuv2CEvoFJFak/rs:fit/g:sm/q:90/h:592/w:600/czM6Ly9kaXNjb2dz/LWRhdGFiYXNlLWlt/YWdlcy9SLTcwMzIz/ODktMTQzMjEyMDk2/Mi04MTQxLmpwZWc.jpeg" class="bbCodeImage LbImage" alt="[​IMG]" data-url="https://i.discogs.com/p-Wouq2HCiWm_SnpCFF5MUffileoguJuv2CEvoFJFak/rs:fit/g:sm/q:90/h:592/w:600/czM6Ly9kaXNjb2dz/LWRhdGFiYXNlLWlt/YWdlcy9SLTcwMzIz/ODktMTQzMjEyMDk2/Mi04MTQxLmpwZWc.jpeg" style=""> <br>
Link:<br>
<div class="bbCodeBlock bbCodeVfcHH HiddenContent">
<div class="attribution type">Hidden Content:</div>
<blockquote>You must either reply or click 'Like' to see the hidden information contained here.</blockquote>
</div>
<div class="messageTextEndMarker">&nbsp;</div>
</blockquote>
</article>]]></description>
                <author><![CDATA[Fan Made]]></author>
                </item>

                
                <item>
                <title><![CDATA[【Unreleased/Unofficial (lossless)】FLAC - Mariah Carey - Best Ballads]]></title>
                <link><![CDATA[https://sharemania.us/threads/mariah-carey-best-ballads.242201/]]></link>
                <description><![CDATA[<article>
<blockquote class="messageText SelectQuoteContainer ugc baseHtml">
<span style="font-size: 22px"><b>Linkin Park - Living Things [Qobuz Hi-Res 24bits/44.1kHz]</b></span><br>
<br>
<img src="https://imgur.com/pR2dS1T.jpg" class="bbCodeImage LbImage" alt="[​IMG]" data-url="https://imgur.com/pR2dS1T.jpg" style=""><br>
<br>
<b>Tracks:</b><br>
01 - LOST IN THE ECHO.flac<br>
02 - IN MY REMAINS.flac<br>
03 - BURN IT DOWN.flac<br>
04 - LIES GREED MISERY.flac<br>
05 - I'LL BE GONE.flac<br>
06 - CASTLE OF GLASS.flac<br>
07 - VICTIMIZED.flac<br>
08 - ROADS UNTRAVELED.flac<br>
09 - SKIN TO BONE.flac<br>
10 - UNTIL IT BREAKS.flac<br>
11 - TINFOIL.flac<br>
12 - POWERLESS.flac<br>
<br>
<b>Quality: Qobuz Hi-Res 24bits/44.1kHz<br>
Size: 448MB</b><br>
<br>
<div class="bbCodeBlock bbCodeVfcHH HiddenContent">
<div class="attribution type">Hidden Content:</div>
<blockquote>You must reply before you can see the hidden data contained here.</blockquote>
</div><b>Password: sharemania</b>
<div class="messageTextEndMarker">&nbsp;</div>
</blockquote>
</article>]]></description>
                <author><![CDATA[jesaispas]]></author>
                </item>

                
                <item>
                <title><![CDATA[【HD Live Performances】Jungle - Coachella 2024 1080p WEB-DL AAC2.0 VP9]]></title>
                <link><![CDATA[https://sharemania.us/threads/jungle-coachella-2024-1080p-web-dl-aac2-0-vp9.242213/]]></link>
                <description><![CDATA[<article>
<blockquote class="messageText SelectQuoteContainer ugc baseHtml">
thanks
<div class="messageTextEndMarker">&nbsp;</div>
</blockquote>
</article>]]></description>
                <author><![CDATA[Chukiie]]></author>
                </item>

                
                <item>
                <title><![CDATA[【Albums (lossy)】M4A - VAMPIRE WEEKEND - 2024 - Only God Was Above Us [24bit-96kHz]]]></title>
                <link><![CDATA[https://sharemania.us/threads/vampire-weekend-2024-only-god-was-above-us-24bit-96khz.242206/]]></link>
                <description><![CDATA[<article>
<blockquote class="messageText SelectQuoteContainer ugc baseHtml">
<div style="text-align: center"><img src="https://i.discogs.com/5TrBecpAZG483beGclWIoha_HR9cvZJ-hgwBHC6SHyc/rs:fit/g:sm/q:90/h:548/w:600/czM6Ly9kaXNjb2dz/LWRhdGFiYXNlLWlt/YWdlcy9SLTIxMDgw/NjYyLTE2Mzc1OTQx/NjQtMzQxOC5qcGVn.jpeg" class="bbCodeImage LbImage" alt="[​IMG]" data-url="https://i.discogs.com/5TrBecpAZG483beGclWIoha_HR9cvZJ-hgwBHC6SHyc/rs:fit/g:sm/q:90/h:548/w:600/czM6Ly9kaXNjb2dz/LWRhdGFiYXNlLWlt/YWdlcy9SLTIxMDgw/NjYyLTE2Mzc1OTQx/NjQtMzQxOC5qcGVn.jpeg" style=""><br>
<img src="https://i.ibb.co/NxcV8kH/Foster-The-People-Pumped-Up-Kicks-2011-Promo-Only-VOB-thumbs.jpg" class="bbCodeImage LbImage" alt="[​IMG]" data-url="https://i.ibb.co/NxcV8kH/Foster-The-People-Pumped-Up-Kicks-2011-Promo-Only-VOB-thumbs.jpg" style=""><br>
<div class="bbCodeBlock bbCodeVfcHH HiddenContent">
<div class="attribution type">Hidden Content:</div>
<blockquote>You must either reply or click 'Like' to see the hidden information contained here.</blockquote>
</div></div>
<div class="messageTextEndMarker">&nbsp;</div>
</blockquote>
</article>]]></description>
                <author><![CDATA[XRB80]]></author>
                </item>

                
                <item>
                <title><![CDATA[【Requests】[REQ VID] - Beyonce - 2 DVDs In ISO dvd9]]></title>
                <link><![CDATA[https://sharemania.us/threads/beyonce-2-dvds-in-iso-dvd9.242216/]]></link>
                <description><![CDATA[<article>
<blockquote class="messageText SelectQuoteContainer ugc baseHtml">
thanks
<div class="messageTextEndMarker">&nbsp;</div>
</blockquote>
</article>]]></description>
                <author><![CDATA[aburneraccount28072023]]></author>
                </item>

                
                <item>
                <title><![CDATA[【HD Live Performances】No Doubt at Coachella 2024]]></title>
                <link><![CDATA[https://sharemania.us/threads/no-doubt-at-coachella-2024.242210/]]></link>
                <description><![CDATA[<article>
<blockquote class="messageText SelectQuoteContainer ugc baseHtml">
Discogs:<br>
<a href="https://www.discogs.com/release/3542769-Mariah-Carey-Best-Ballads" target="_blank" class="externalLink" rel="nofollow">https://www.discogs.com/release/3542769-Mariah-Carey-Best-Ballads</a><br>
<img src="https://i.discogs.com/26UJx7HyH1aT8AxKLUTBrvKXdFGjMwTjAIbei9Jj9Z0/rs:fit/g:sm/q:90/h:600/w:600/czM6Ly9kaXNjb2dz/LWRhdGFiYXNlLWlt/YWdlcy9SLTM1NDI3/NjktMTMzNDU4ODQw/MC5qcGVn.jpeg" class="bbCodeImage LbImage" alt="[​IMG]" data-url="https://i.discogs.com/26UJx7HyH1aT8AxKLUTBrvKXdFGjMwTjAIbei9Jj9Z0/rs:fit/g:sm/q:90/h:600/w:600/czM6Ly9kaXNjb2dz/LWRhdGFiYXNlLWlt/YWdlcy9SLTM1NDI3/NjktMTMzNDU4ODQw/MC5qcGVn.jpeg" style=""><br>
Link:<br>
<div class="bbCodeBlock bbCodeVfcHH HiddenContent">
<div class="attribution type">Hidden Content:</div>
<blockquote>You must either reply or click 'Like' to see the hidden information contained here.</blockquote>
</div>
<div class="messageTextEndMarker">&nbsp;</div>
</blockquote>
</article>]]></description>
                <author><![CDATA[martinduchesne12]]></author>
                </item>

                
                <item>
                <title><![CDATA[【Requests】[REQ VID] - Taco - Puttin' On The Ritz [1080p Upscale]]]></title>
                <link><![CDATA[https://sharemania.us/threads/taco-puttin-on-the-ritz-1080p-upscale.242219/]]></link>
                <description><![CDATA[<article>
<blockquote class="messageText SelectQuoteContainer ugc baseHtml">
<img src="https://i.ibb.co/dPRHp8f/jungle1.png" class="bbCodeImage LbImage" alt="[​IMG]" data-url="https://i.ibb.co/dPRHp8f/jungle1.png" style=""><br>
<img src="https://i.ibb.co/7gg68Jr/jungle2.png" class="bbCodeImage LbImage" alt="[​IMG]" data-url="https://i.ibb.co/7gg68Jr/jungle2.png" style=""><br>
<div class="bbCodeBlock bbCodeVfcHH HiddenContent">
<div class="attribution type">Hidden Content:</div>
<blockquote>You must reply before you can see the hidden data contained here.</blockquote>
</div>
<div class="messageTextEndMarker">&nbsp;</div>
</blockquote>
</article>]]></description>
                <author><![CDATA[Freaky2003]]></author>
                </item>

                
                <item>
                <title><![CDATA[【Requests】[REQ VID] - Coachella Sat 4-13 Gobi stage]]></title>
                <link><![CDATA[https://sharemania.us/threads/coachella-sat-4-13-gobi-stage.242209/]]></link>
                <description><![CDATA[<article>
<blockquote class="messageText SelectQuoteContainer ugc baseHtml">
Thank you
<div class="messageTextEndMarker">&nbsp;</div>
</blockquote>
</article>]]></description>
                <author><![CDATA[mooosica]]></author>
                </item>

                
                <item>
                <title><![CDATA[【Requests】[REQ AUD] - Justin Bieber - Stuck In The Moment (Remix) APPLE MUSIC OR SPOTIFY HD RIP]]></title>
                <link><![CDATA[https://sharemania.us/threads/justin-bieber-stuck-in-the-moment-remix-apple-music-or-spotify-hd-rip.242215/]]></link>
                <description><![CDATA[<article>
<blockquote class="messageText SelectQuoteContainer ugc baseHtml">
Thank you.
<div class="messageTextEndMarker">&nbsp;</div>
</blockquote>
</article>]]></description>
                <author><![CDATA[aburneraccount28072023]]></author>
                </item>

                
                <item>
                <title><![CDATA[【SD】DVD - Mika - Big Girl (You Are Beautiful) (2007) [VOB]]]></title>
                <link><![CDATA[https://sharemania.us/threads/mika-big-girl-you-are-beautiful-2007-vob.242204/]]></link>
                <description><![CDATA[<article>
<blockquote class="messageText SelectQuoteContainer ugc baseHtml">
nice, thank uuu
<div class="messageTextEndMarker">&nbsp;</div>
</blockquote>
</article>]]></description>
                <author><![CDATA[Fan Made]]></author>
                </item>

                
                <item>
                <title><![CDATA[【HD Live Performances】Gesafflestein - Coachella 2024 1080p WEB-DL AAC2.0 VP9]]></title>
                <link><![CDATA[https://sharemania.us/threads/gesafflestein-coachella-2024-1080p-web-dl-aac2-0-vp9.242214/]]></link>
                <description><![CDATA[<article>
<blockquote class="messageText SelectQuoteContainer ugc baseHtml">
thanks
<div class="messageTextEndMarker">&nbsp;</div>
</blockquote>
</article>]]></description>
                <author><![CDATA[Chukiie]]></author>
                </item>

                
                <item>
                <title><![CDATA[【Singles (lossless)】ALAC - Faithless - God Is A DJ (Remixes) [M4A ALAC 44100Hz 16bps]]]></title>
                <link><![CDATA[https://sharemania.us/threads/faithless-god-is-a-dj-remixes-m4a-alac-44100hz-16bps.242205/]]></link>
                <description><![CDATA[<article>
<blockquote class="messageText SelectQuoteContainer ugc baseHtml">
Awesome. Thanks!
<div class="messageTextEndMarker">&nbsp;</div>
</blockquote>
</article>]]></description>
                <author><![CDATA[EvertNL]]></author>
                </item>

                
                <item>
                <title><![CDATA[【HD Live Performances】WEB-RiP - Foster The People - Rock In Rio (2015) 720p]]></title>
                <link><![CDATA[https://sharemania.us/threads/foster-the-people-rock-in-rio-2015-720p.242212/]]></link>
                <description><![CDATA[<article>
<blockquote class="messageText SelectQuoteContainer ugc baseHtml">
thanks
<div class="messageTextEndMarker">&nbsp;</div>
</blockquote>
</article>]]></description>
                <author><![CDATA[Nero]]></author>
                </item>

                
                <item>
                <title><![CDATA[【Requests】[REQ VID] - [REQ CAP] Billy Joel: The 100th - Live at Madison Square Garden]]></title>
                <link><![CDATA[https://sharemania.us/threads/req-cap-billy-joel-the-100th-live-at-madison-square-garden.242223/]]></link>
                <description><![CDATA[<article>
<blockquote class="messageText SelectQuoteContainer ugc baseHtml">
tytyty
<div class="messageTextEndMarker">&nbsp;</div>
</blockquote>
</article>]]></description>
                <author><![CDATA[medicine]]></author>
                </item>

                
                <item>
                <title><![CDATA[【SD】DVD - Fey - One Suitcase Aqui Estoy (2006) (Promo Only) [VOB]]]></title>
                <link><![CDATA[https://sharemania.us/threads/fey-one-suitcase-aqui-estoy-2006-promo-only-vob.242221/]]></link>
                <description><![CDATA[<article>
<blockquote class="messageText SelectQuoteContainer ugc baseHtml">
<div class="bbCodeBlock bbCodeVfcHH HiddenContent">
<div class="attribution type">Hidden Content:</div>
<blockquote>You must either reply or click 'Like' to see the hidden information contained here.</blockquote>
</div>
<div class="messageTextEndMarker">&nbsp;</div>
</blockquote>
</article>]]></description>
                <author><![CDATA[Fan Made]]></author>
                </item>

                
                <item>
                <title><![CDATA[【Music Videos】The Human League - Human (Instrumental &amp; Vocal Mix) (VJ-RoGeRs Video Edit) (Clean)]]></title>
                <link><![CDATA[https://sharemania.us/threads/the-human-league-human-instrumental-vocal-mix-vj-rogers-video-edit-clean.242208/]]></link>
                <description><![CDATA[<article>
<blockquote class="messageText SelectQuoteContainer ugc baseHtml">
Amazing! I've been waiting for this! Thanks so much!
<div class="messageTextEndMarker">&nbsp;</div>
</blockquote>
</article>]]></description>
                <author><![CDATA[DJ-RoGeRs-BS]]></author>
                </item>

                
                <item>
                <title><![CDATA[【Unreleased/Unofficial (lossless)】FLAC - Scorpions - Best Ballads]]></title>
                <link><![CDATA[https://sharemania.us/threads/scorpions-best-ballads.242203/]]></link>
                <description><![CDATA[<article>
<blockquote class="messageText SelectQuoteContainer ugc baseHtml">
Thanks!
<div class="messageTextEndMarker">&nbsp;</div>
</blockquote>
</article>]]></description>
                <author><![CDATA[jesaispas]]></author>
                </item>

                
                <item>
                <title><![CDATA[【HD Live Performances】Tyler The Creator - Coachella 2024 1080p WEB-DL AAC2.0 VP9]]></title>
                <link><![CDATA[https://sharemania.us/threads/tyler-the-creator-coachella-2024-1080p-web-dl-aac2-0-vp9.242211/]]></link>
                <description><![CDATA[<article>
<blockquote class="messageText SelectQuoteContainer ugc baseHtml">
thanks
<div class="messageTextEndMarker">&nbsp;</div>
</blockquote>
</article>]]></description>
                <author><![CDATA[Chukiie]]></author>
                </item>

                
                <item>
                <title><![CDATA[【Unreleased/Unofficial (lossless)】FLAC - Eros Ramazzotti - Best Ballads]]></title>
                <link><![CDATA[https://sharemania.us/threads/eros-ramazzotti-best-ballads.242200/]]></link>
                <description><![CDATA[<article>
<blockquote class="messageText SelectQuoteContainer ugc baseHtml">
Thanks!
<div class="messageTextEndMarker">&nbsp;</div>
</blockquote>
</article>]]></description>
                <author><![CDATA[jesaispas]]></author>
                </item>

                
                <item>
                <title><![CDATA[【SD】DVD - Ellie Goulding - Lights (2011) (Promo Only) [VOB]]]></title>
                <link><![CDATA[https://sharemania.us/threads/ellie-goulding-lights-2011-promo-only-vob.242217/]]></link>
                <description><![CDATA[<article>
<blockquote class="messageText SelectQuoteContainer ugc baseHtml">
Great!!
<div class="messageTextEndMarker">&nbsp;</div>
</blockquote>
</article>]]></description>
                <author><![CDATA[Fan Made]]></author>
                </item>

                </channel></rss>